<?xml version="1.0" standalone="no"?>
<!DOCTYPE svg PUBLIC "-//W3C//DTD SVG 20010904//EN"
 "http://www.w3.org/TR/2001/REC-SVG-20010904/DTD/svg10.dtd">
<svg version="1.0" xmlns="http://www.w3.org/2000/svg"
 width="260.000000pt" height="260.000000pt" viewBox="0 0 260.000000 260.000000"
 preserveAspectRatio="xMidYMid meet">
<metadata>
Created by potrace 1.11, written by Peter Selinger 2001-2013
</metadata>
<g transform="translate(0.000000,260.000000) scale(0.100000,-0.100000)"
fill="#000000" stroke="none">
<path d="M109 2572 c-43 -22 -59 -38 -81 -81 l-28 -53 1 -512 c1 -452 2 -502
14 -431 90 567 523 1000 1090 1090 71 12 21 13 -431 14 l-512 1 -53 -28z"/>
<path d="M1500 2585 c283 -45 530 -174 734 -385 201 -207 322 -458 359 -745 2
-16 5 198 6 476 l1 507 -28 53 c-22 43 -38 59 -81 81 l-53 28 -512 -1 c-465
-1 -503 -2 -426 -14z"/>
<path d="M916 2073 c-3 -4 -6 -19 -6 -35 0 -16 -6 -30 -12 -32 -7 -2 -32 -9
-55 -15 -56 -15 -54 -29 5 -34 36 -3 30 -4 -25 -5 -40 -1 -73 -6 -73 -11 0 -4
46 -13 103 -18 l102 -10 -115 -3 c-148 -3 -101 -17 65 -19 170 -2 128 -20 -50
-22 -104 -1 -129 -4 -95 -10 25 -4 79 -8 120 -9 61 -1 70 -3 50 -11 -14 -6
-69 -9 -122 -7 -53 2 -94 1 -92 -2 3 -3 44 -10 92 -16 l87 -11 -102 -2 c-61 0
-103 -5 -103 -11 0 -5 9 -10 20 -10 20 0 20 -5 18 -142 l-3 -143 -53 0 c-28 0
-52 -3 -52 -7 0 -3 12 -20 26 -37 l26 -31 258 0 259 0 25 33 c15 19 26 36 26
38 0 2 -24 4 -52 4 l-53 0 -3 49 -3 48 38 -7 c80 -14 1299 -246 1319 -250 19
-4 20 -1 16 58 -2 34 -6 64 -7 65 -3 4 -550 73 -678 87 -139 14 -51 17 210 6
147 -6 310 -14 361 -17 102 -7 100 -8 81 60 l-11 39 -471 -7 c-260 -3 -510 -9
-557 -11 -166 -10 -43 13 460 85 278 40 508 75 512 77 6 3 -23 75 -37 91 -1 1
-273 -50 -605 -113 -332 -63 -609 -115 -617 -115 -10 0 -13 18 -13 70 0 63 2
70 20 70 42 0 11 108 -46 162 -34 31 -93 58 -129 58 -22 0 -25 4 -25 34 0 31
-19 53 -34 39z m-81 -428 l0 -100 -27 -3 -27 -3 -3 101 c-2 56 -1 104 2 106 2
3 16 4 30 2 25 -3 25 -3 25 -103z m125 72 c0 -31 -3 -34 -30 -34 -27 0 -30 3
-30 34 0 30 3 33 30 33 27 0 30 -3 30 -33z m120 -32 l0 -65 -30 0 c-30 0 -30
0 -30 58 0 65 3 72 37 72 22 0 23 -4 23 -65z m-2 -112 c3 -31 1 -33 -27 -33
-29 0 -31 3 -31 36 0 33 2 35 28 32 22 -2 28 -8 30 -35z"/>
<path d="M990 1361 l-75 -6 64 -7 c35 -5 89 -8 120 -9 101 -2 16 -17 -101 -18
-65 -1 -108 -5 -108 -11 0 -6 45 -10 114 -10 66 0 117 -4 121 -10 4 -6 -31
-10 -97 -11 -57 -1 -130 -5 -163 -9 l-60 -7 61 -2 c33 0 110 -4 170 -8 l109
-8 -65 -6 c-36 -4 -96 -8 -135 -9 l-70 -3 65 -7 c36 -4 103 -9 150 -10 116 -2
75 -18 -50 -20 -129 -1 -96 -16 53 -23 l118 -6 -5 47 c-3 26 -8 73 -11 105
l-6 57 -62 -2 c-34 -1 -96 -4 -137 -7z"/>
<path d="M1 674 l-1 -512 28 -53 c22 -43 38 -59 81 -81 l53 -28 507 1 c278 1
499 3 491 4 -8 2 -49 9 -90 15 -107 17 -270 73 -369 126 -126 67 -230 146
-336 255 -190 196 -307 430 -350 699 -12 77 -13 39 -14 -426z"/>
<path d="M2582 1079 c-70 -449 -409 -851 -852 -1007 -76 -27 -194 -55 -275
-65 -16 -2 198 -5 476 -6 l507 -1 53 28 c44 23 59 38 82 82 l27 55 -2 499 c-3
455 -4 492 -16 415z"/>
<path d="M646 1058 c-3 -35 -8 -102 -12 -150 l-6 -88 302 0 302 0 -6 63 c-3
34 -8 101 -12 150 l-6 87 -278 0 -278 0 -6 -62z"/>
<path d="M2276 968 c-34 -81 -107 -198 -174 -276 -149 -175 -422 -314 -657
-336 l-60 -5 65 15 c190 45 318 103 441 202 83 67 193 192 237 271 32 57 22
51 -22 -14 -88 -127 -269 -267 -421 -326 -93 -37 -241 -69 -305 -68 -38 1 -32
4 45 19 120 24 234 69 325 129 83 55 194 151 212 185 6 11 -12 0 -40 -26 -101
-94 -235 -165 -380 -200 -82 -20 -110 -21 -509 -19 l-422 2 -5 -33 c-3 -18 -7
-63 -9 -99 l-4 -66 46 -30 c193 -129 409 -193 644 -193 200 0 355 38 540 132
143 73 318 208 384 297 21 29 15 25 -33 -20 -87 -82 -171 -140 -281 -197 -153
-78 -295 -118 -478 -137 -86 -8 -47 9 53 24 212 31 427 139 591 295 78 75 181
198 206 247 23 44 12 35 -30 -26 -55 -81 -212 -226 -307 -284 -129 -80 -329
-148 -478 -164 -71 -8 -45 7 40 22 291 53 567 247 710 497 49 86 113 230 108
244 -2 5 -16 -22 -32 -62z"/>
<path d="M1087 769 c-60 -4 -111 -10 -115 -13 -3 -3 30 -6 74 -6 43 0 97 -3
119 -7 31 -6 5 -10 -110 -18 l-150 -11 145 -9 c130 -8 139 -10 85 -16 -33 -4
-114 -8 -180 -9 -164 -3 -110 -18 70 -19 77 -1 147 -6 155 -11 10 -7 -22 -10
-100 -11 -145 -1 -195 -17 -60 -19 52 -1 118 -5 145 -9 45 -6 37 -8 -70 -16
l-120 -9 75 -7 c41 -3 104 -7 140 -8 l66 -1 -8 78 c-3 42 -7 89 -7 105 -1 22
-5 27 -23 26 -13 -1 -72 -5 -131 -10z"/>
</g>
</svg>
